Coordinates
version=1
nRows=14
nColumns=24
inDegrees=yes

Units are S.I. units (second, meters, Newtons, ...)
Angles are in degrees.

endheader
time	pelvis_tilt	pelvis_list	pelvis_rotation	pelvis_tx	pelvis_ty	pelvis_tz	hip_flexion_r	hip_adduction_r	hip_rotation_r	knee_angle_r	ankle_angle_r	subtalar_angle_r	mtp_angle_r	hip_flexion_l	hip_adduction_l	hip_rotation_l	knee_angle_l	ankle_angle_l	subtalar_angle_l	mtp_angle_l	lumbar_extension	lumbar_bending	lumbar_rotation
      0.45800000	     -4.94841833	     -5.16336737	     -0.50514407	     -0.70005409	      1.05501168	      0.29820949	     26.46050762	      5.90345593	     -4.77178416	     -9.53610599	      4.35620558	     -4.76466795	      9.17101538	    -10.83602551	     -5.72489175	     -3.48453137	     -7.95910899	     17.87802601	      7.79093514	      9.81442238	    -10.49849212	      6.65219282	     -3.46597858
      0.46216667	     -4.88458980	     -5.08599323	     -0.43504876	     -0.69409599	      1.05387863	      0.29851074	     26.43086629	      5.83015568	     -4.42728775	     -9.44050144	      4.27121674	     -4.96553871	      9.15959511	    -10.95642523	     -5.70287742	     -3.50049895	     -8.58326470	     18.03533302	      8.02916675	      9.87373611	    -10.56271447	      6.59312633	     -3.35799037
      0.46633333	     -4.82417806	     -5.04611808	     -0.34815679	     -0.68805549	      1.05278181	      0.29879786	     26.39055854	      5.79268431	     -4.10162852	     -9.41048136	      4.09749771	     -5.24307923	      9.14298261	    -11.02874224	     -5.73584298	     -3.55256832	     -9.30953615	     18.23308793	      8.34266622	      9.98084081	    -10.57273838	      6.60661646	     -3.39038732
      0.47050000	     -4.72543225	     -5.01796466	     -0.27339266	     -0.68200879	      1.05178635	      0.29908361	     26.32923439	      5.77194385	     -3.80062302	     -9.51350627	      3.91740986	     -5.51500722	      9.12470236	    -11.11732147	     -5.78385617	     -3.64866205	    -10.09179959	     18.41113114	      8.70274312	     10.15651074	    -10.65286423	      6.64622989	     -3.38255525
      0.47466667	     -4.64058144	     -4.99486349	     -0.18088197	     -0.67591954	      1.05081544	      0.29935621	     26.28572959	      5.75222805	     -3.52949662	     -9.71301502	      3.73692431	     -5.81334296	      9.10704556	    -11.15134856	     -5.84738443	     -3.71166357	    -10.95233483	     18.55508131	      9.06439994	     10.36421556	    -10.69555229	      6.67893306	     -3.38574715
      0.47883333	     -4.51314375	     -4.98861573	     -0.09373652	     -0.66981810	      1.04995025	      0.29963955	     26.20686863	      5.75536806	     -3.28747053	    -10.01490824	      3.53239804	     -6.11290480	      9.08973404	    -11.20278611	     -5.93558292	     -3.81705308	    -11.87713857	     18.68133506	      9.46928518	     10.62293703	    -10.79371243	      6.74519630	     -3.37501340
      0.48300000	     -4.37904812	     -4.99516873	     -0.00709278	     -0.66369071	      1.04913975	      0.29992539	     26.13131047	      5.77330332	     -3.07555483	    -10.41692527	      3.31128976	     -6.41520955	      9.07224999	    -11.22501391	     -6.04615065	     -3.93984022	    -12.87846010	     18.77807615	      9.89799029	     10.94382703	    -10.89557877	      6.83004550	     -3.35888009
      0.48716667	     -4.25349649	     -5.00519850	      0.07376126	     -0.65753325	      1.04834838	      0.30022966	     26.07788927	      5.79908863	     -2.89594408	    -10.91836122	      3.07925852	     -6.71856429	      9.05448343	    -11.20426159	     -6.16798079	     -4.08274641	    -13.95171779	     18.83821126	     10.34229193	     11.34124490	    -10.98469980	      6.92177761	     -3.33669806
      0.49133333	     -4.09481214	     -5.02751397	      0.15984461	     -0.65135734	      1.04765244	      0.30053941	     25.99148452	      5.83860982	     -2.74782685	    -11.48853825	      2.84544388	     -7.00541008	      9.03668562	    -11.18617498	     -6.31331048	     -4.23571891	    -15.09117294	     18.85396235	     10.79505066	     11.77537010	    -11.10235594	      7.02693356	     -3.30652227
      0.49550000	     -3.90588449	     -5.05172753	      0.23435449	     -0.64519085	      1.04702713	      0.30085834	     25.89604264	      5.88275186	     -2.65304172	    -12.16558339	      2.66143954	     -7.19597970	      8.92328413	    -11.17826623	     -6.46123495	     -4.37391022	    -16.26846578	     18.76252413	     11.15370546	     15.63868715	    -11.28036487	      7.14581926	     -3.21140851
      0.49966667	     -3.76571283	     -5.07583055	      0.32242093	     -0.63898215	      1.04638578	      0.30121732	     25.83961306	      5.93084511	     -2.53562291	    -12.86270801	      2.37898655	     -7.55261327	      8.91175203	    -11.06614574	     -6.62698301	     -4.51320178	    -17.54895817	     18.65003139	     11.59333699	     15.74814582	    -11.35397124	      7.25148890	     -3.24419633
      0.50383333	     -3.57904071	     -5.11567235	      0.39903732	     -0.63277529	      1.04583596	      0.30158877	     25.74503519	      5.99816671	     -2.46213301	    -13.62751093	      2.15560392	     -7.80114596	      8.89861196	    -10.97017115	     -6.82017907	     -4.70892813	    -18.89911181	     18.51673461	     12.08704740	     15.93894290	    -11.50559526	      7.38170555	     -3.18806212
      0.50800000	     -3.39783444	     -5.16046121	      0.47311182	     -0.62656696	      1.04530974	      0.30198886	     25.66034271	      6.07412521	     -2.40507575	    -14.43465962	      1.93412185	     -8.06412893	      8.87865917	    -10.83038351	     -7.02991008	     -4.90493285	    -20.32024695	     18.32275392	     12.57248913	     16.21462928	    -11.64405244	      7.52395794	     -3.13998551
      0.51216667	     -3.20594732	     -5.21574867	      0.55474082	     -0.62034325	      1.04485499	      0.30239116	     25.55580010	      6.16160727	     -2.35889631	    -15.25598143	      1.71315853	     -8.36752154	      8.64610394	    -10.67342074	     -7.25604421	     -5.05597153	    -21.77404748	     17.98352399	     12.92568332	     19.67807563	    -11.79637220	      7.68496846	     -3.04989072
